# xmcd CD database file
#
# Track frame offsets:
#	150
#	17137
#	37762
#
# Disc length: 729 seconds
#
# Revision: 0
# Processed by: cddbd v1.5PL3 Copyright (c) Steve Scherf et al.
# Submitted via: CDex 1.50beta9
#
DISCID=1602d703
DTITLE=SIAM SHADE - NEVER END
DYEAR=1900
DGENRE=Rock
TTITLE0=NEVER END
TTITLE1=Crime
TTITLE2=NEVER END(Backing Track)
EXTD=
EXTT0=
EXTT1=
EXTT2=
PLAYORDER=
